<?xml version="1.0" encoding="iso-8859-1"?>
<!-- Generator: Adobe Illustrator 18.1.1, SVG Export Plug-In . SVG Version: 6.00 Build 0)  -->
<svg version="1.1" id="Capa_1" xmlns="http://www.w3.org/2000/svg" xmlns:xlink="http://www.w3.org/1999/xlink" x="0px" y="0px"
	 viewBox="0 0 207.122 207.122" style="enable-background:new 0 0 207.122 207.122;" xml:space="preserve">
<g>
	<g>
		<g>
			<path style="fill:#010002;" d="M147.259,121.058l-26.201,26.201l59.863,59.863l26.197-26.201L147.259,121.058z M147.259,128.212
				l52.709,52.709l-19.047,19.047l-52.709-52.709L147.259,128.212z"/>
		</g>
		<g>
			<path style="fill:#010002;" d="M86.068,59.867L26.208,0L0.004,26.204l59.86,59.874L86.068,59.867z M26.208,7.161L78.91,59.867
				L59.863,78.914L7.161,26.208L26.208,7.161z"/>
		</g>
		<g>
			<path style="fill:#010002;" d="M103.712,155.025l48.547-48.558L100.58,54.789l-48.554,48.547l24.061,24.057l-8.009,8.002
				c-12.379-0.827-23.166,8.629-24.164,20.84l-0.2,2.52l21.391,1.746l0.011,3.965c-0.143,0.097-0.29,0.218-0.433,0.351
				c-1.628,1.636-1.628,4.291,0,5.93c0.798,0.798,1.847,1.235,2.97,1.235c1.12,0,2.172-0.437,2.967-1.235
				c0.791-0.787,1.228-1.85,1.228-2.97c0-1.117-0.437-2.162-1.228-2.96c-0.143-0.143-0.29-0.261-0.444-0.361l-0.011-3.539
				l18.878,1.553l0.197-2.534c0.551-6.65-1.847-13.195-6.578-17.934c-2.437-2.437-5.39-4.28-8.629-5.397l5.637-5.644
				L103.712,155.025z M79.075,145.577c3.085,3.089,4.885,7.097,5.146,11.409l-34.883-2.849c1.933-8.367,9.896-14.376,18.674-13.675
				C72.193,140.803,76.119,142.628,79.075,145.577z M100.58,61.953l44.528,44.514l-41.397,41.404l-44.524-44.535L100.58,61.953z"/>
		</g>
	</g>
</g>
<g>
</g>
<g>
</g>
<g>
</g>
<g>
</g>
<g>
</g>
<g>
</g>
<g>
</g>
<g>
</g>
<g>
</g>
<g>
</g>
<g>
</g>
<g>
</g>
<g>
</g>
<g>
</g>
<g>
</g>
</svg>
