<?xml version="1.0" encoding="UTF-8" standalone="no"?>
<svg
   xmlns:dc="http://purl.org/dc/elements/1.1/"
   xmlns:cc="http://creativecommons.org/ns#"
   xmlns:rdf="http://www.w3.org/1999/02/22-rdf-syntax-ns#"
   xmlns:svg="http://www.w3.org/2000/svg"
   xmlns="http://www.w3.org/2000/svg"
   xmlns:sodipodi="http://sodipodi.sourceforge.net/DTD/sodipodi-0.dtd"
   xmlns:inkscape="http://www.inkscape.org/namespaces/inkscape"
   version="1.1"
   id="Layer_1"
   x="0px"
   y="0px"
   width="170.92403"
   height="177.72896"
   viewBox="0 0 170.92402 177.72896"
   enable-background="new 0 0 128 128"
   xml:space="preserve"
   sodipodi:docname="logo_qgis_3_22.svg"
   inkscape:version="0.92.5 (2060ec1f9f, 2020-04-08)"
   inkscape:export-filename="/home/pierson/Travail/projets/tutoqgis/illustrations/tous/logo_qgis_3_16.png"
   inkscape:export-xdpi="96"
   inkscape:export-ydpi="96"><metadata
   id="metadata27"><rdf:RDF><cc:Work
       rdf:about=""><dc:format>image/svg+xml</dc:format><dc:type
         rdf:resource="http://purl.org/dc/dcmitype/StillImage" /><dc:title></dc:title></cc:Work></rdf:RDF></metadata><defs
   id="defs25" /><sodipodi:namedview
   pagecolor="#ffffff"
   bordercolor="#666666"
   borderopacity="1"
   objecttolerance="10"
   gridtolerance="10"
   guidetolerance="10"
   inkscape:pageopacity="0"
   inkscape:pageshadow="2"
   inkscape:window-width="1874"
   inkscape:window-height="983"
   id="namedview23"
   showgrid="false"
   fit-margin-top="5"
   fit-margin-left="5"
   fit-margin-right="5"
   fit-margin-bottom="5"
   inkscape:zoom="3.359375"
   inkscape:cx="19.113608"
   inkscape:cy="65.617302"
   inkscape:window-x="46"
   inkscape:window-y="27"
   inkscape:window-maximized="1"
   inkscape:current-layer="Layer_1" />

<linearGradient
   id="SVGID_1_"
   gradientUnits="userSpaceOnUse"
   x1="402.52441"
   y1="-220.87061"
   x2="400.64789"
   y2="-97.502296"
   gradientTransform="matrix(1,0,0,-1,-300.5195,-92.5547)">
	<stop
   offset="0"
   style="stop-color:#589632"
   id="stop4" />
	<stop
   offset="1"
   style="stop-color:#93B023"
   id="stop6" />
</linearGradient>


<linearGradient
   id="SVGID_2_"
   gradientUnits="userSpaceOnUse"
   x1="365.46191"
   y1="-221.14549"
   x2="363.59229"
   y2="-98.226997"
   gradientTransform="matrix(1,0,0,-1,-300.5195,-92.5547)">
	<stop
   offset="0"
   style="stop-color:#589632"
   id="stop13" />
	<stop
   offset="1"
   style="stop-color:#93B023"
   id="stop15" />
</linearGradient>

<g
   id="g857"
   transform="translate(21.529515,2.808)"><polygon
     fill="#ee7913"
     points="68.613,69.625 86.891,69.625 71.697,54.625 52.613,54.625 52.613,72.746 68.613,88.548 "
     id="polygon2" /><polygon
     fill="url(#SVGID_1_)"
     points="126.613,109.057 94.488,77.625 76.613,77.625 76.613,96.033 107.143,126.625 126.613,126.625 "
     id="polygon9"
     style="fill:url(#SVGID_1_)" /><polygon
     fill="#f0e64a"
     points="76.613,77.625 94.488,77.625 86.891,69.625 68.613,69.625 68.613,88.548 76.613,96.033 "
     id="polygon11" /><path
     fill="url(#SVGID_2_)"
     d="m 68.923,101.552 c -1.165,0.242 -1.769,0.157 -4.685,0.157 -20.866,0 -38.612,-17.158 -38.612,-39.406 0,-22.248 17.551,-39.027 38.612,-39.027 21.061,0 37.833,16.78 37.833,39.027 0,3.619 -0.451,7.099 -1.284,10.398 L 120.1,92.012 c 4.979,-8.726 7.765,-18.869 7.765,-29.857 C 127.865,27.866 100.502,2.192 63.849,2.192 27.363,2.191 0,27.696 0,62.154 c 0,34.625 27.363,60.638 63.848,60.638 9.417,0 16.069,-1.469 23.042,-3.761 z"
     id="path18"
     style="fill:url(#SVGID_2_)" /><polygon
     opacity="0.15"
     fill="#ffffff"
     enable-background="new    "
     points="126.613,109.057 126.613,126.625 53.083,54.625 71.697,54.625 "
     id="polygon20" /></g>
<text
   xml:space="preserve"
   style="font-style:normal;font-weight:normal;font-size:37.33330154px;line-height:1.25;font-family:sans-serif;fill:#000000;fill-opacity:1;stroke:none"
   x="2.8346684"
   y="165.8223"
   id="text854"><tspan
     sodipodi:role="line"
     id="tspan852"
     x="2.8346684"
     y="165.8223"
     style="font-style:normal;font-variant:normal;font-weight:normal;font-stretch:normal;font-size:37.33330154px;font-family:Ubuntu;-inkscape-font-specification:Ubuntu;fill:#4d4d4d;fill-opacity:1">QGIS 3.22</tspan></text>
</svg>